<svg width="374" height="581" viewBox="0 0 374 581" fill="none" xmlns="http://www.w3.org/2000/svg">
<path d="M0 20C0 8.95431 8.9543 0 20 0H374V581H20C8.9543 581 0 572.046 0 561V20Z" fill="#000056"/>
<rect x="126.028" y="213.436" width="121.845" height="120.856" rx="40" fill="white"/>
<path fill-rule="evenodd" clip-rule="evenodd" d="M238.872 231.985C236.389 209.265 215.233 192.597 191.551 194.98C167.868 197.363 150.777 217.88 153.261 240.6C154.808 254.75 164.457 266.812 173.421 274.752C178.047 278.849 182.927 282.244 187.339 284.627C189.538 285.815 191.786 286.84 193.955 287.56C195.886 288.2 198.744 288.942 201.788 288.635C204.832 288.329 207.468 287.035 209.218 286.024C211.185 284.888 213.162 283.437 215.056 281.838C218.857 278.629 222.897 274.336 226.536 269.407C233.588 259.856 240.419 246.135 238.872 231.985ZM194.237 219.555C203.624 218.61 212.243 225.263 213.26 234.563C213.89 240.326 210.889 247.584 205.903 254.466C203.543 257.724 201.023 260.497 198.937 262.465C198.934 262.467 198.932 262.469 198.93 262.472C198.926 262.47 198.922 262.467 198.919 262.465C196.452 260.954 193.387 258.743 190.374 256.026C184.008 250.286 179.503 243.784 178.873 238.023C177.857 228.723 184.85 220.499 194.237 219.555Z" fill="#000056"/>
<path fill-rule="evenodd" clip-rule="evenodd" d="M263.909 261.36C263.909 220.389 229.43 187 186.954 187C144.478 187 109.999 220.389 109.999 261.36C109.999 286.644 124.98 311.106 141.284 328.912C149.507 337.892 158.273 345.411 166.082 350.728C169.984 353.385 173.731 355.55 177.123 357.071C180.388 358.536 183.824 359.636 186.954 359.636C190.083 359.636 193.52 358.536 196.784 357.071C200.176 355.55 203.924 353.385 207.825 350.728C208.326 350.387 208.83 350.038 209.338 349.679L185.141 335.482C184.923 335.359 184.696 335.229 184.461 335.09C182.424 333.891 179.9 332.183 177.054 330.007C171.365 325.659 164.595 319.602 158.112 312.393C144.978 297.791 133.816 279.362 133.816 261.36C133.816 232.923 157.706 209.852 186.954 209.852C216.202 209.852 240.091 232.923 240.091 261.36C240.091 279.366 228.928 297.797 215.795 312.4C210.14 318.687 189.922 331.088 184.739 335.253L209.338 349.679C213.405 346.1 228.641 333.261 232.624 328.912C248.928 311.106 263.909 286.644 263.909 261.36Z" fill="#000056"/>
</svg>
