<svg width="279" height="100" viewBox="0 0 279 100" fill="none" xmlns="http://www.w3.org/2000/svg">
<path d="M5.95512 80V35.502H18.8579V80H5.95512ZM12.4065 29.2988C10.0355 29.2988 8.10558 28.6095 6.6168 27.231C5.12802 25.8525 4.38363 24.1432 4.38363 22.103C4.38363 20.0628 5.12802 18.3535 6.6168 16.975C8.10558 15.5965 10.0355 14.9072 12.4065 14.9072C14.7775 14.9072 16.7074 15.5689 18.1962 16.8923C19.685 18.1605 20.4294 19.8147 20.4294 21.8549C20.4294 24.0053 19.685 25.7974 18.1962 27.231C16.7626 28.6095 14.8327 29.2988 12.4065 29.2988ZM31.7425 80V22.103H42.8257L67.4733 62.9617H61.6009L85.8349 22.103H96.8353L97.0007 80H84.4288L84.3461 41.3744H86.662L67.3078 73.8795H61.27L41.5023 41.3744H44.3145V80H31.7425ZM131.911 80.6617C126.838 80.6617 122.372 79.6692 118.512 77.6841C114.707 75.6991 111.757 72.9972 109.662 69.5785C107.567 66.1047 106.519 62.1622 106.519 57.751C106.519 53.2847 107.539 49.3422 109.579 45.9235C111.674 42.4497 114.514 39.7478 118.098 37.8179C121.682 35.8329 125.735 34.8403 130.257 34.8403C134.613 34.8403 138.528 35.7777 142.001 37.6525C145.53 39.4721 148.315 42.1188 150.355 45.5926C152.395 49.0113 153.415 53.1192 153.415 57.9164C153.415 58.4127 153.388 58.9917 153.333 59.6533C153.278 60.2599 153.222 60.8388 153.167 61.3902H117.023V53.8636H146.385L141.422 56.0968C141.422 53.7809 140.954 51.7683 140.016 50.059C139.079 48.3496 137.783 47.0263 136.129 46.0889C134.475 45.0964 132.545 44.6001 130.339 44.6001C128.134 44.6001 126.176 45.0964 124.467 46.0889C122.813 47.0263 121.517 48.3772 120.58 50.1417C119.642 51.851 119.173 53.8912 119.173 56.2622V58.2473C119.173 60.6734 119.697 62.8239 120.745 64.6986C121.848 66.5183 123.364 67.9243 125.294 68.9169C127.279 69.8542 129.595 70.3229 132.242 70.3229C134.613 70.3229 136.68 69.9645 138.445 69.2477C140.265 68.5309 141.919 67.4556 143.408 66.022L150.272 73.4659C148.232 75.7818 145.668 77.5738 142.58 78.8421C139.493 80.0551 135.936 80.6617 131.911 80.6617ZM162.006 80V18.6292H174.908V80H162.006ZM186.883 80V18.6292H199.786V80H186.883ZM226.731 80.6617C222.927 80.6617 219.26 80.2206 215.731 79.3383C212.257 78.4009 209.5 77.243 207.46 75.8645L211.761 66.601C213.801 67.8692 216.2 68.9169 218.957 69.744C221.769 70.5159 224.526 70.9019 227.228 70.9019C230.205 70.9019 232.301 70.5435 233.514 69.8267C234.782 69.1098 235.416 68.1173 235.416 66.8491C235.416 65.8014 234.92 65.0295 233.927 64.5332C232.99 63.9818 231.722 63.5683 230.122 63.2926C228.523 63.0169 226.759 62.7412 224.829 62.4655C222.954 62.1898 221.052 61.8314 219.122 61.3902C217.192 60.894 215.428 60.1772 213.829 59.2398C212.23 58.3024 210.934 57.0342 209.941 55.4351C209.004 53.8361 208.535 51.7683 208.535 49.2319C208.535 46.4197 209.335 43.9384 210.934 41.788C212.588 39.6375 214.959 37.9557 218.047 36.7427C221.135 35.4745 224.829 34.8403 229.13 34.8403C232.163 34.8403 235.251 35.1712 238.393 35.8329C241.536 36.4945 244.156 37.4595 246.251 38.7277L241.95 47.9085C239.8 46.6403 237.622 45.7856 235.416 45.3445C233.265 44.8482 231.17 44.6001 229.13 44.6001C226.263 44.6001 224.167 44.9861 222.844 45.7581C221.521 46.53 220.859 47.5225 220.859 48.7356C220.859 49.8384 221.328 50.6655 222.265 51.2169C223.258 51.7683 224.553 52.2094 226.152 52.5403C227.751 52.8711 229.488 53.1744 231.363 53.4501C233.293 53.6706 235.223 54.0291 237.153 54.5253C239.083 55.0216 240.82 55.7384 242.364 56.6758C243.963 57.558 245.258 58.7987 246.251 60.3977C247.243 61.9416 247.74 63.9818 247.74 66.5183C247.74 69.2753 246.913 71.729 245.258 73.8795C243.604 75.9748 241.206 77.629 238.063 78.8421C234.975 80.0551 231.198 80.6617 226.731 80.6617Z" fill="#000056"/>
</svg>
